<svg xmlns="http://www.w3.org/2000/svg" viewBox="0 0 64 64" aria-labelledby="title"
aria-describedby="desc" role="img" xmlns:xlink="http://www.w3.org/1999/xlink">
  <title>Champion</title>
  <desc>A flat styled icon from Orion Icon Library.</desc>
  <path data-name="layer5"
  d="M31 47.982a1 1 0 0 1-1-1v-14a1 1 0 1 1 2 0v14a1 1 0 0 1-1 1zm-9.219-18.447a1.027 1.027 0 0 1-.122-.008C8.7 27.951 0 20.5 0 10.98 0 7.184 1.743 4.3 4.908 2.858a10.453 10.453 0 0 1 10.75 1.37 1 1 0 1 1-1.312 1.509 8.49 8.49 0 0 0-8.609-1.06C4.032 5.454 2 7.178 2 10.98c0 8.326 8.183 15.136 19.9 16.562a1 1 0 0 1-.119 1.993z"
  fill="#f7c98a"></path>
  <path data-name="opacity" d="M31 47.982a1 1 0 0 1-1-1v-14a1 1 0 1 1 2 0v14a1 1 0 0 1-1 1zm-9.219-18.447a1.027 1.027 0 0 1-.122-.008C8.7 27.951 0 20.5 0 10.98 0 7.184 1.743 4.3 4.908 2.858a10.453 10.453 0 0 1 10.75 1.37 1 1 0 1 1-1.312 1.509 8.49 8.49 0 0 0-8.609-1.06C4.032 5.454 2 7.178 2 10.98c0 8.326 8.183 15.136 19.9 16.562a1 1 0 0 1-.119 1.993z"
  fill="#000064" opacity=".1"></path>
  <path data-name="layer5" d="M40.256 29.535a1 1 0 0 1-.119-1.993c11.716-1.426 19.9-8.236 19.9-16.562 0-3.8-2.032-5.526-3.737-6.3a8.488 8.488 0 0 0-8.608 1.06 1 1 0 1 1-1.312-1.509 10.452 10.452 0 0 1 10.75-1.37c3.165 1.441 4.908 4.326 4.908 8.122 0 9.518-8.7 16.971-21.659 18.547a1.027 1.027 0 0 1-.123.005z"
  fill="#f7c98a"></path>
  <rect data-name="layer4" x="14.002" y="46.982" width="34" height="16"
  rx="2" ry="2" fill="#de9372"></rect>
  <path data-name="layer2" d="M30.982 32.982h.037C43.006 32.971 47 22.943 47 15.2V.982H15v14c0 7.996 4 17.989 15.982 18z"
  fill="#ffdda4"></path>
  <path data-name="layer1" d="M38 55.982H24a1 1 0 1 1 0-2h14a1 1 0 0 1 0 2z"
  fill="#b76244"></path>
  <path data-name="opacity" d="M31 .982H15v14c0 8 4 17.991 15.98 18H31z"
  fill="#000064" opacity=".1"></path>
</svg>