<svg xmlns="http://www.w3.org/2000/svg" viewBox="0 0 64 64" aria-labelledby="title"
aria-describedby="desc" role="img" xmlns:xlink="http://www.w3.org/1999/xlink">
  <title>Link</title>
  <desc>A flat styled icon from Orion Icon Library.</desc>
  <path data-name="layer1"
  d="M54 21H44a8 8 0 0 0-8 8v6a8 8 0 0 0 8 8h10a8 8 0 0 0 8-8v-6a8 8 0 0 0-8-8zm4 14a4 4 0 0 1-4 4H44a4 4 0 0 1-4-4v-6a4 4 0 0 1 4-4h10a4 4 0 0 1 4 4zM20 21H10a8 8 0 0 0-8 8v6a8 8 0 0 0 8 8h10a8 8 0 0 0 8-8v-6a8 8 0 0 0-8-8zm4 9v5a4 4 0 0 1-4 4H10a4 4 0 0 1-4-4v-6a4 4 0 0 1 4-4h10a4 4 0 0 1 4 4z"
  fill="#92b5e4"></path>
  <path data-name="layer1" d="M48.272 32a2 2 0 0 1-2 2h-29a2 2 0 0 1-2-2 2 2 0 0 1 2-2h29a2 2 0 0 1 2 2z"
  fill="#92b5e4"></path>
  <path data-name="opacity" d="M48.272 32a2 2 0 0 1-2 2h-29a2 2 0 0 1-2-2 2 2 0 0 1 2-2h29a2 2 0 0 1 2 2z"
  fill="#000064" opacity=".15"></path>
</svg>