<svg xmlns="http://www.w3.org/2000/svg" viewBox="0 0 64 64" aria-labelledby="title"
aria-describedby="desc" role="img" xmlns:xlink="http://www.w3.org/1999/xlink">
  <title>Employee</title>
  <desc>A flat styled icon from Orion Icon Library.</desc>
  <path data-name="layer5"
  d="M42.62 17.438v-3.1c0-.243-.022-.466-.031-.7-.52-1.764-1.976-5.341-6.506-5.341-2.26 0-3.94-.589-5.325.408-1.385-1-2.83.148-5.09.148a6.376 6.376 0 0 0-6.6 4.785c-.01.235-.031.459-.031.7v3.1c-3.214.045-2.595 3.24-2.595 4.046s.5 6.2 3.088 6.227a15.617 15.617 0 0 0 4.534 7.589h-.007l-.075 2.7a3.736 3.736 0 0 1-.78 2.9l7.506 6.1.121-.094.121.094 7.506-6.1a3.736 3.736 0 0 1-.78-2.9l-.076-2.7h-.007a15.615 15.615 0 0 0 4.531-7.586c2.592-.03 3.089-5.418 3.089-6.227s.621-4.004-2.593-4.049z"
  fill="#ffd9d9"></path>
  <path data-name="layer4" d="M30.713 2c-5.679 0-11.674 3.427-11.674 12.341V15.7c10.073-.094 10.021-6.847 16.83-6.847a6.537 6.537 0 0 1 6.72 4.785C42.27 5.261 36.238 2 30.713 2z"
  fill="#915c53"></path>
  <path data-name="layer3" d="M46.127 44c-4.7-.9-6.708-2-7.67-3.1L30.83 47l-7.63-6.1c-.96 1.1-2.965 2.2-7.668 3.1-10.3 1.972-10.3 9.428-10.3 9.428V62h51.195v-8.573s0-7.456-10.3-9.427z"
  fill="#71c3f3"></path>
  <path data-name="layer2" fill="#46b1f0" d="M29.83 46.199v15.799h2V46.199l-1 .799-1-.799z"></path>
  <path data-name="layer1" d="M41.427 42.76v-.019a7.325 7.325 0 0 1-2.97-1.839L30.83 47l10.6 8.571zm-21.195 0v-.019A7.322 7.322 0 0 0 23.2 40.9l7.63 6.1-10.6 8.571z"
  fill="#a0dff7"></path>
  <path data-name="opacity" d="M30.951 38.3V2h-.116c-5.517 0-11.419 3.251-11.754 11.606l-.011.035c-.01.235-.031.459-.031.7v3.1c-3.214.045-2.595 3.24-2.595 4.046s.5 6.2 3.088 6.227a15.617 15.617 0 0 0 4.532 7.586h-.007l-.075 2.7a3.736 3.736 0 0 1-.78 2.9c-.962 1.1-2.967 2.2-7.67 3.1-10.3 1.972-10.3 9.428-10.3 9.428V62h5.674L37.6 35.3s-3.338 2.925-6.649 3z"
  fill="#000064" opacity=".15"></path>
</svg>