<svg xmlns="http://www.w3.org/2000/svg" viewBox="0 0 64 64" aria-labelledby="title"
aria-describedby="desc" role="img" xmlns:xlink="http://www.w3.org/1999/xlink">
  <title>Game Controller</title>
  <desc>A flat styled icon from Orion Icon Library.</desc>
  <path data-name="layer5"
  d="M31 20.083a1 1 0 0 1-1-1V4.667a1 1 0 1 1 2 0v14.416a1 1 0 0 1-1 1z"
  fill="#556685"></path>
  <path data-name="layer4" d="M44.4 47.744l4.887 6.883A7.055 7.055 0 0 0 55 58a7.321 7.321 0 0 0 6.869-8.786l-3.992-21.786C56.966 21.907 52.612 17.373 47 17.059L46.66 17H18c-5.91 0-10.537 4.692-11.484 10.428 0 0-4.516 21.541-4.516 22.978C2 54.314 5.156 58 9 58a7.761 7.761 0 0 0 6.105-3.373l4.8-6.756L23 44h19z"
  fill="#7b8baf"></path>
  <path data-name="opacity" d="M9.1 58a7.576 7.576 0 0 0 5.911-3.281l5-7 .016-.937c-2.4-.426-4.733-1.632-4.733-4.15a5.1 5.1 0 0 1 1.466-3.58L2.656 53.375A7.1 7.1 0 0 0 9.1 58zm32.541-14.437c-.107-.411-2.393-.451-2.393-.9a5.074 5.074 0 0 1 1.274-3.346l-.012-.011-4.635 4.706 3.906-.062zm2.559 3.828l.234.391.8 1.156 2.217-2.238c-.712.7-2.224.5-3.251.691z"
  fill="#000064" opacity=".15"></path>
  <path data-name="layer3" d="M25 43a4.92 4.92 0 0 1-5 5 5.017 5.017 0 0 1-5-5.116A4.823 4.823 0 0 1 20 38a4.92 4.92 0 0 1 5 5zm24 0a4.92 4.92 0 0 1-5 5 5.017 5.017 0 0 1-5-5.116A4.823 4.823 0 0 1 44 38a4.92 4.92 0 0 1 5 5z"
  fill="#8fa9d8"></path>
  <path d="M38.791 28.106l-2.367 2.377a2.514 2.514 0 0 0-.288.289l-.058.058.006.005a2.552 2.552 0 0 0 3.816 3.38l2.667-2.661zm12.804.801l-3.914-3.288-2.429 2.409-.05.05-.029.028a2.555 2.555 0 0 0 3.675 3.551z"
  fill="#000064" data-name="opacity" opacity=".15"></path>
  <circle data-name="layer2" cx="40.651" cy="29.861" r="2.557" fill="#f27e7c"></circle>
  <circle data-name="layer2" cx="49.604" cy="27.303" r="2.558"
  fill="#f27e7c"></circle>
  <path data-name="opacity" d="M18.623 29.417h-.438a1.579 1.579 0 0 1-1.579-1.492V27.4c0-.743-.164-2.852-.637-2.978-.31.31-1.119 1.119-1.361 1.351a1.341 1.341 0 0 0-.415.971v.409c0 .851-.216.941-1.224.941a2.974 2.974 0 0 1-.5-.163c-.52.52-1.229 1.216-1.471 1.45a1.345 1.345 0 0 0 .935 2.311h.441a1.793 1.793 0 0 1 1.859 1.838v.515a1.345 1.345 0 0 0 2.322.924c.228-.241 1.014-.993 1.335-1.313 0 0-.967.058-.967-.052a2.149 2.149 0 0 1 1.969-1.87h.4a1.342 1.342 0 0 0 1.027-.477c.2-.234 1.127-1.11 1.305-1.288.526-.525-2.259-.552-3.001-.552z"
  fill="#000064" opacity=".15"></path>
  <path data-name="layer1" d="M20.571 27.571h-.465a1.678 1.678 0 0 1-1.678-1.585v-.558a1.429 1.429 0 0 0-2.857 0v.435a1.671 1.671 0 0 1-1.73 1.708h-.413a1.429 1.429 0 0 0 0 2.857h.472a1.645 1.645 0 0 1 1.675 1.6v.547a1.429 1.429 0 1 0 2.857 0V32.1a1.659 1.659 0 0 1 1.718-1.675h.425a1.429 1.429 0 1 0 0-2.857z"
  fill="#3f5275"></path>
</svg>