<svg xmlns="http://www.w3.org/2000/svg" viewBox="0 0 64 64" aria-labelledby="title"
aria-describedby="desc" role="img" xmlns:xlink="http://www.w3.org/1999/xlink">
  <title>Customer Support</title>
  <desc>A flat styled icon from Orion Icon Library.</desc>
  <path data-name="layer6"
  d="M26.021 4.4C26.1 6.477 26.035 16.322 18 19v7c0 6.117 2.378 11.32 6.006 14.515l-.006.006V44c0 1.69.434 4.094-6.068 6.005L28 62h8l9.563-11.961C39.282 48.123 40 45.7 40 44v-5c2 0 6-3 6-7V18C27.995 18 26.2 6.659 26.021 4.4z"
  fill="#ffe1e1"></path>
  <path data-name="layer5" d="M51 20h-5v6s0 3.144.349 6.991V33H51a3.3 3.3 0 0 0 3-3v-7a3.3 3.3 0 0 0-3-3zm-33 0h-6a3.3 3.3 0 0 0-3 3v7a3.3 3.3 0 0 0 3 3h5.217l.022-.026C17.8 29.134 18 26 18 26z"
  fill="#8ca0c8"></path>
  <path data-name="layer3" d="M32 2c-6.627 0-14 3.6-14 14v3c8.035-2.678 8.1-12.523 8.021-14.6C26 4.145 26 4 26 4s.011.145.021.4C26.2 6.659 27.995 18 46 18v-2C46 5.6 38.627 2 32 2z"
  fill="#e27250"></path>
  <path data-name="layer4" d="M61 62a14.28 14.28 0 0 0-11.422-11 37.937 37.937 0 0 1-4.016-.961L36 62zM13.609 51A14.557 14.557 0 0 0 2 62h26L17.932 50.005a42.214 42.214 0 0 1-4.323.995z"
  fill="#78d1f4"></path>
  <path data-name="layer3" d="M24 44v-3.479l.006-.006C20.378 37.32 18 32.117 18 26c0 0-1 16-5 20a10.762 10.762 0 0 0 4.928 4h.012c6.493-1.908 6.06-4.311 6.06-6zm26 2c-4-4-4-20-4-20v6c0 4-4 7-6 7v5c0 1.68-.688 4.064 5.354 5.97A10.673 10.673 0 0 0 50 46z"
  fill="#e27250"></path>
  <path data-name="layer2" d="M40 40a1 1 0 0 1 0-2c1.45 0 5-2.6 5-6a1 1 0 0 1 2 0c0 4.7-4.541 8-7 8z"
  fill="#556685"></path>
  <path data-name="opacity" d="M39.089 41.09l-7.012-2.326V2H32c-6.627 0-14 3.6-14 14v4h-6a3.3 3.3 0 0 0-3 3v7a3.3 3.3 0 0 0 3 3h5.216l.022-.026C16.527 37.812 15.23 43.77 13 46a10.762 10.762 0 0 0 4.928 4h.012c5.682-1.672 6.061-3.721 6.066-5.338-.006 1.619-.385 3.668-6.074 5.341a42.229 42.229 0 0 1-4.323.997A14.557 14.557 0 0 0 2 62h16.179zM17.6 30.192c.141-1.211.239-2.246.3-2.983-.056.737-.155 1.77-.3 2.983zM26.021 4.4C26 4.145 26 4 26 4s.011.145.021.4z"
  fill="#000064" opacity=".15"></path>
  <path data-name="layer1" d="M40 38.937A2.933 2.933 0 0 0 37.07 36h-2.138A2.934 2.934 0 0 0 32 38.937 3.045 3.045 0 0 0 34.932 42h2.138A3.045 3.045 0 0 0 40 38.937z"
  fill="#8fa9d8"></path>
</svg>